<svg width="24" height="24" viewBox="0 0 24 24" fill="none" xmlns="http://www.w3.org/2000/svg">
<g id="Flags">
<g clip-path="url(#clip0_92_1177)">
<rect width="24" height="24" rx="12" fill="white"/>
<path id="Vector" fill-rule="evenodd" clip-rule="evenodd" d="M0 0H14.4V11.2H0V0Z" fill="#1A47B8"/>
<path id="Vector_2" fill-rule="evenodd" clip-rule="evenodd" d="M14.4 0V1.6H33.6V0H14.4ZM14.4 3.2V4.8H33.6V3.2H14.4ZM14.4 6.4V8H33.6V6.4H14.4ZM14.4 9.6V11.2H33.6V9.6H14.4ZM0 12.8V14.4H33.6V12.8H0ZM0 16V17.6H33.6V16H0ZM0 19.2V20.8H33.6V19.2H0ZM0 22.4V24H33.6V22.4H0Z" fill="#F93939"/>
<path id="Vector_3" fill-rule="evenodd" clip-rule="evenodd" d="M1.6001 1.6001V3.2001H3.2001V1.6001H1.6001ZM4.8001 1.6001V3.2001H6.4001V1.6001H4.8001ZM8.0001 1.6001V3.2001H9.6001V1.6001H8.0001ZM11.2001 1.6001V3.2001H12.8001V1.6001H11.2001ZM9.6001 3.2001V4.8001H11.2001V3.2001H9.6001ZM6.4001 3.2001V4.8001H8.0001V3.2001H6.4001ZM3.2001 3.2001V4.8001H4.8001V3.2001H3.2001ZM1.6001 4.8001V6.4001H3.2001V4.8001H1.6001ZM4.8001 4.8001V6.4001H6.4001V4.8001H4.8001ZM8.0001 4.8001V6.4001H9.6001V4.8001H8.0001ZM11.2001 4.8001V6.4001H12.8001V4.8001H11.2001ZM1.6001 8.0001V9.6001H3.2001V8.0001H1.6001ZM4.8001 8.0001V9.6001H6.4001V8.0001H4.8001ZM8.0001 8.0001V9.6001H9.6001V8.0001H8.0001ZM11.2001 8.0001V9.6001H12.8001V8.0001H11.2001ZM9.6001 6.4001V8.0001H11.2001V6.4001H9.6001ZM6.4001 6.4001V8.0001H8.0001V6.4001H6.4001ZM3.2001 6.4001V8.0001H4.8001V6.4001H3.2001Z" fill="white"/>
</g>
</g>
<defs>
<clipPath id="clip0_92_1177">
<rect width="24" height="24" rx="12" fill="white"/>
</clipPath>
</defs>
</svg>
