<svg width="24" height="24" viewBox="0 0 24 24" fill="none" xmlns="http://www.w3.org/2000/svg">
<g id="langauge=Kazakh">
<rect width="24" height="24" rx="12" fill="#03BCDB"/>
<path id="Vector" fill-rule="evenodd" clip-rule="evenodd" d="M1.59998 3.9922C1.59998 3.5554 1.97118 3.2002 2.39998 3.2002C2.84158 3.2002 3.19998 3.5458 3.19998 3.9922V7.2082C3.19998 7.645 2.82878 8.0002 2.39998 8.0002C1.95838 8.0002 1.59998 7.6546 1.59998 7.2082V3.9922ZM3.19998 7.1922C3.19998 6.7554 3.57118 6.4002 3.99998 6.4002C4.44158 6.4002 4.79998 6.7458 4.79998 7.1922V10.4082C4.79998 10.845 4.42878 11.2002 3.99998 11.2002C3.55838 11.2002 3.19998 10.8546 3.19998 10.4082V7.1922ZM3.19998 13.5922C3.19998 13.1554 3.57118 12.8002 3.99998 12.8002C4.44158 12.8002 4.79998 13.1458 4.79998 13.5922V16.8082C4.79998 17.245 4.42878 17.6002 3.99998 17.6002C3.55838 17.6002 3.19998 17.2546 3.19998 16.8082V13.5922ZM1.59998 16.7922C1.59998 16.3554 1.97118 16.0002 2.39998 16.0002C2.84158 16.0002 3.19998 16.3458 3.19998 16.7922V20.0082C3.19998 20.445 2.82878 20.8002 2.39998 20.8002C1.95838 20.8002 1.59998 20.4546 1.59998 20.0082V16.7922ZM1.59998 10.4002C1.59998 9.9586 1.97118 9.6002 2.39998 9.6002C2.84158 9.6002 3.19998 9.9714 3.19998 10.4002C3.19998 10.8418 2.82878 11.2002 2.39998 11.2002C1.95838 11.2002 1.59998 10.829 1.59998 10.4002ZM3.19998 4.0002C3.19998 3.5586 3.57118 3.2002 3.99998 3.2002C4.44158 3.2002 4.79998 3.5714 4.79998 4.0002C4.79998 4.4418 4.42878 4.8002 3.99998 4.8002C3.55838 4.8002 3.19998 4.429 3.19998 4.0002ZM1.59998 12.0002C1.59998 11.5586 1.97118 11.2002 2.39998 11.2002C2.84158 11.2002 3.19998 11.5714 3.19998 12.0002C3.19998 12.4418 2.82878 12.8002 2.39998 12.8002C1.95838 12.8002 1.59998 12.429 1.59998 12.0002ZM3.19998 20.0002C3.19998 19.5586 3.57118 19.2002 3.99998 19.2002C4.44158 19.2002 4.79998 19.5714 4.79998 20.0002C4.79998 20.4418 4.42878 20.8002 3.99998 20.8002C3.55838 20.8002 3.19998 20.429 3.19998 20.0002ZM1.59998 13.6002C1.59998 13.1586 1.97118 12.8002 2.39998 12.8002C2.84158 12.8002 3.19998 13.1714 3.19998 13.6002C3.19998 14.0418 2.82878 14.4002 2.39998 14.4002C1.95838 14.4002 1.59998 14.029 1.59998 13.6002Z" fill="#FFDA2C"/>
<path id="Vector_2" d="M16.8 14.4004C19.0092 14.4004 20.8 12.6095 20.8 10.4004C20.8 8.19125 19.0092 6.40039 16.8 6.40039C14.5909 6.40039 12.8 8.19125 12.8 10.4004C12.8 12.6095 14.5909 14.4004 16.8 14.4004Z" fill="#FFDA2C"/>
<path id="Vector_3" fill-rule="evenodd" clip-rule="evenodd" d="M11.2 11.2002L12.8 14.4002L16.8 16.0002L20.8 14.4002L22.4 11.2002V16.0002L16.8 17.6002L11.2 16.0002V11.2002Z" fill="#FFDA2C"/>
</g>
</svg>
